<svg width="48" height="48" viewBox="0 0 48 48" fill="none" xmlns="http://www.w3.org/2000/svg">
<g clip-path="url(#clip0_434_6032)">
<path d="M20.4072 0.337953V25.4393H47.9394C47.9394 25.4393 49.0774 14.9586 41.1908 7.00658C31.9946 -2.26713 20.4072 0.337953 20.4072 0.337953Z" fill="#F1891E"/>
<path d="M2.67947 12.7338C1.57647 14.9627 -3.08692 24.86 3.28749 36.4712C9.0305 46.9318 23.8216 49.547 25.1935 47.2155C25.1935 47.2155 28.1167 41.2992 26.4252 35.8859C25.061 31.5608 21.1265 27.1171 13.7952 24.2183C4.9264 20.6999 3.04974 13.8804 2.67947 12.7338Z" fill="#223F69"/>
<path d="M11.7762 16.4473C13.7415 16.4473 15.3347 14.8027 15.3347 12.774C15.3347 10.7453 13.7415 9.10071 11.7762 9.10071C9.81094 9.10071 8.21777 10.7453 8.21777 12.774C8.21777 14.8027 9.81094 16.4473 11.7762 16.4473Z" fill="#1D1D1B"/>
</g>
<defs>
<clipPath id="clip0_434_6032">
<rect width="48" height="48" fill="white"/>
</clipPath>
</defs>
</svg>
