<svg width="220" height="69" viewBox="0 0 220 69" fill="none" xmlns="http://www.w3.org/2000/svg">
<path d="M83.5639 13.6463V36.2146H109.116C109.116 36.2146 110.171 26.7898 102.852 19.6447C94.3136 11.3072 83.5639 13.6463 83.5639 13.6463Z" fill="#F1891E"/>
<path d="M67.1131 24.7937C65.3917 28.1062 64.5403 31.8018 64.6385 35.5337C64.7368 39.2655 65.7817 42.9112 67.675 46.1285C73.0247 55.5259 86.7302 57.8741 88.0048 55.7863C88.0048 55.7863 90.7459 50.4686 89.1469 45.6031C87.886 41.7154 84.2267 37.7179 77.4287 35.0956C69.1963 31.9525 67.4557 25.817 67.1131 24.7937Z" fill="#223F69"/>
<path d="M75.5509 28.1333C77.3751 28.1333 78.8539 26.6545 78.8539 24.8303C78.8539 23.006 77.3751 21.5272 75.5509 21.5272C73.7267 21.5272 72.2479 23.006 72.2479 24.8303C72.2479 26.6545 73.7267 28.1333 75.5509 28.1333Z" fill="#1D1D1B"/>
<path d="M50.1183 16.625C50.1021 16.1988 50.1721 15.7737 50.324 15.3752C50.4759 14.9767 50.7067 14.613 51.0025 14.3057C51.2983 13.9985 51.653 13.7541 52.0455 13.5871C52.4379 13.4202 52.86 13.3341 53.2865 13.3341C53.713 13.3341 54.1351 13.4202 54.5276 13.5871C54.92 13.7541 55.2748 13.9985 55.5706 14.3057C55.8664 14.613 56.0971 14.9767 56.2491 15.3752C56.401 15.7737 56.471 16.1988 56.4548 16.625V53.2871C56.471 53.7133 56.401 54.1384 56.2491 54.5369C56.0971 54.9354 55.8664 55.2992 55.5706 55.6064C55.2748 55.9137 54.92 56.1581 54.5276 56.325C54.1351 56.492 53.713 56.578 53.2865 56.578C52.86 56.578 52.4379 56.492 52.0455 56.325C51.653 56.1581 51.2983 55.9137 51.0025 55.6064C50.7067 55.2992 50.4759 54.9354 50.324 54.5369C50.1721 54.1384 50.1021 53.7133 50.1183 53.2871V16.625Z" fill="#1D1D1B"/>
<path d="M117.289 19.2839C117.3 17.9922 117.731 16.7393 118.519 15.715C119.306 14.6908 120.405 13.9511 121.651 13.6081C122.896 13.2652 124.219 13.3376 125.42 13.8144C126.62 14.2912 127.633 15.1464 128.303 16.2504L140.794 36.9548L151.603 16.4377C152.226 15.2753 153.22 14.3554 154.428 13.8251C155.635 13.2948 156.985 13.1848 158.263 13.5127C159.54 13.8406 160.671 14.5874 161.473 15.6337C162.276 16.68 162.705 17.9653 162.69 19.2839V36.5163C162.69 37.3644 162.354 38.1778 161.754 38.7776C161.154 39.3773 160.341 39.7142 159.493 39.7142C158.646 39.7082 157.836 39.3694 157.238 38.7709C156.639 38.1725 156.301 37.3626 156.295 36.5163V21.1342L143.987 44.5522C143.771 45.1587 143.37 45.6819 142.84 46.0476C142.311 46.4133 141.679 46.603 141.036 46.5898C140.422 46.591 139.82 46.4205 139.297 46.0976C138.775 45.7747 138.353 45.3122 138.08 44.7624L123.625 20.8875V53.4517C123.594 54.2711 123.247 55.0466 122.656 55.6154C122.065 56.1841 121.277 56.5019 120.457 56.5019C119.637 56.5019 118.849 56.1841 118.258 55.6154C117.667 55.0466 117.32 54.2711 117.289 53.4517V19.2839Z" fill="#1D1D1B"/>
<path d="M159.552 50.1761C160.394 50.1936 161.198 50.5361 161.794 51.1321C162.389 51.7281 162.732 52.5314 162.75 53.374C162.744 54.2203 162.405 55.0303 161.806 55.6287C161.208 56.2271 160.398 56.566 159.552 56.572C158.703 56.572 157.89 56.235 157.29 55.6353C156.691 55.0356 156.354 54.2222 156.354 53.374C156.36 52.5277 156.698 51.7178 157.297 51.1193C157.895 50.5209 158.705 50.1821 159.552 50.1761Z" fill="#1D1D1B"/>
<path d="M177.122 41.1262C177.299 40.7253 177.556 40.365 177.877 40.0676C178.198 39.7701 178.578 39.5419 178.991 39.3969C179.404 39.252 179.843 39.1935 180.28 39.2251C180.716 39.2567 181.142 39.3777 181.53 39.5805C181.918 39.7834 182.261 40.0638 182.536 40.4044C182.811 40.745 183.014 41.1385 183.131 41.5605C183.248 41.9826 183.277 42.4242 183.216 42.8579C183.155 43.2916 183.006 43.7083 182.778 44.082L177.122 54.8454C176.73 55.5797 176.062 56.1282 175.265 56.3706C174.469 56.613 173.609 56.5294 172.874 56.1382C172.5 55.9544 172.168 55.6975 171.896 55.3828C171.624 55.0681 171.418 54.702 171.29 54.3062C171.162 53.9104 171.115 53.4929 171.152 53.0786C171.188 52.6642 171.308 52.2614 171.503 51.8941L177.122 41.1262ZM190.718 15.1726C190.979 14.6546 191.379 14.2193 191.873 13.9151C192.367 13.611 192.936 13.4499 193.516 13.4499C194.096 13.4499 194.665 13.611 195.159 13.9151C195.653 14.2193 196.053 14.6546 196.314 15.1726L215.63 51.8987C215.824 52.2622 215.945 52.6604 215.985 53.0705C216.025 53.4806 215.984 53.8947 215.864 54.2889C215.744 54.6831 215.547 55.0498 215.285 55.3679C215.023 55.686 214.701 55.9493 214.337 56.1428C213.592 56.5258 212.727 56.6051 211.925 56.364C211.122 56.1229 210.444 55.5802 210.034 54.8499L193.546 23.4735L177.186 54.786C177.007 55.1825 176.749 55.5383 176.427 55.8315C176.105 56.1247 175.727 56.3492 175.316 56.4912C174.905 56.6333 174.469 56.6898 174.035 56.6575C173.601 56.6251 173.178 56.5046 172.792 56.3031C172.406 56.1017 172.066 55.8236 171.791 55.486C171.517 55.1483 171.314 54.7582 171.195 54.3394C171.077 53.9207 171.045 53.4822 171.102 53.0507C171.159 52.6192 171.303 52.2039 171.526 51.8302L190.718 15.1726ZM190.348 43.8992C190.348 43.0511 190.685 42.2377 191.285 41.638C191.884 41.0382 192.698 40.7013 193.546 40.7013C194.394 40.7013 195.207 41.0382 195.807 41.638C196.407 42.2377 196.744 43.0511 196.744 43.8992C196.744 44.7474 196.407 45.5608 195.807 46.1605C195.207 46.7603 194.394 47.0972 193.546 47.0972C192.698 47.0972 191.884 46.7603 191.285 46.1605C190.685 45.5608 190.348 44.7474 190.348 43.8992Z" fill="#1D1D1B"/>
<path d="M37.6279 33.6653C39.2302 31.4704 40.0723 28.8125 40.0264 26.0953C40.0264 20.0055 35.7228 13.4223 23.6849 13.4223H7.23829C6.39014 13.4223 5.57673 13.7592 4.977 14.359C4.37727 14.9587 4.04034 15.7721 4.04034 16.6203C4.04034 17.4684 4.37727 18.2818 4.977 18.8815C5.57673 19.4813 6.39014 19.8182 7.23829 19.8182H23.6849C28.2534 19.8182 33.7355 20.8644 33.7355 26.0907C33.7355 29.2293 32.0132 30.7049 30.5376 31.445C29.9657 31.7312 29.4945 32.1849 29.1868 32.7456C28.8791 33.3063 28.7495 33.9474 28.8153 34.5836C28.8813 35.2186 29.1332 35.8201 29.5396 36.3126C29.9459 36.805 30.4886 37.1667 31.0995 37.3521C34.1147 38.211 35.668 40.2439 35.668 43.4419C35.668 45.1002 35.668 50.1484 24.7767 50.1484H10.3768C9.54504 50.158 8.75022 50.4936 8.16329 51.0831C7.57636 51.6726 7.24422 52.4688 7.23829 53.3007C7.23829 54.1488 7.57521 54.9622 8.17495 55.562C8.77468 56.1617 9.58809 56.4986 10.4362 56.4986H10.8931H24.6899C40.2548 56.4986 41.9771 47.3936 41.9771 43.4556C41.9954 39.3257 40.3964 35.9404 37.6279 33.6653Z" fill="#1D1D1B"/>
<path d="M17.4348 53.3012C17.4348 54.1493 17.0979 54.9627 16.4982 55.5624C15.8984 56.1622 15.085 56.4991 14.2369 56.4991H10.4359C9.80748 56.4947 9.1943 56.3053 8.67293 55.9544C8.15156 55.6036 7.74511 55.1069 7.50435 54.5265C7.26359 53.946 7.19918 53.3075 7.31917 52.6906C7.43917 52.0737 7.73825 51.5059 8.17905 51.058C8.76318 50.4768 9.55247 50.1486 10.3765 50.1443H14.2551C14.3851 50.1443 14.5148 50.1534 14.6435 50.1717C15.4104 50.2631 16.1174 50.6317 16.6315 51.2081C17.1456 51.7844 17.4313 52.5288 17.4348 53.3012Z" fill="black"/>
<path d="M17.435 38.1882C19.2441 38.1882 20.7107 36.7216 20.7107 34.9125C20.7107 33.1035 19.2441 31.6369 17.435 31.6369C15.626 31.6369 14.1594 33.1035 14.1594 34.9125C14.1594 36.7216 15.626 38.1882 17.435 38.1882Z" fill="#4C672B"/>
<path d="M159.62 56.6085C161.429 56.6085 162.896 55.142 162.896 53.3329C162.896 51.5239 161.429 50.0573 159.62 50.0573C157.811 50.0573 156.345 51.5239 156.345 53.3329C156.345 55.142 157.811 56.6085 159.62 56.6085Z" fill="#994215"/>
<path d="M193.514 47.2748C195.341 47.2748 196.822 45.7939 196.822 43.9672C196.822 42.1404 195.341 40.6596 193.514 40.6596C191.688 40.6596 190.207 42.1404 190.207 43.9672C190.207 45.7939 191.688 47.2748 193.514 47.2748Z" fill="#F6A117"/>
</svg>
